<svg width="24" height="25" viewBox="0 0 24 25" fill="none" xmlns="http://www.w3.org/2000/svg">
<path d="M13.01 3.41982L18.91 6.03982C20.61 6.78982 20.61 8.02982 18.91 8.77982L13.01 11.3998C12.34 11.6998 11.24 11.6998 10.57 11.3998L4.67002 8.77982C2.97002 8.02982 2.97002 6.78982 4.67002 6.03982L10.57 3.41982C11.24 3.11982 12.34 3.11982 13.01 3.41982Z" stroke="#364356" stroke-width="1.5" stroke-linecap="round" stroke-linejoin="round"/>
<path d="M3 11.5C3 12.34 3.63 13.31 4.4 13.65L11.19 16.67C11.71 16.9 12.3 16.9 12.81 16.67L19.6 13.65C20.37 13.31 21 12.34 21 11.5" stroke="#364356" stroke-width="1.5" stroke-linecap="round" stroke-linejoin="round"/>
<path d="M3 16.5C3 17.43 3.55 18.27 4.4 18.65L11.19 21.67C11.71 21.9 12.3 21.9 12.81 21.67L19.6 18.65C20.45 18.27 21 17.43 21 16.5" stroke="#364356" stroke-width="1.5" stroke-linecap="round" stroke-linejoin="round"/>
</svg>
