<svg width="400" height="401" viewBox="0 0 400 401" fill="none" xmlns="http://www.w3.org/2000/svg">
<g clip-path="url(#clip0_446_2759)">
<path d="M300 0.5H100C44.7715 0.5 0 45.2715 0 100.5V300.5C0 355.728 44.7715 400.5 100 400.5H300C355.228 400.5 400 355.728 400 300.5V100.5C400 45.2715 355.228 0.5 300 0.5Z" fill="#5667FD"/>
<path fill-rule="evenodd" clip-rule="evenodd" d="M152.398 164.539C151.028 165.465 149.693 166.424 148.393 167.413C147.409 167.928 146.456 168.523 145.538 169.2C126.429 183.285 110.03 201.128 97.0423 218.186L77.8175 198.961C56.7648 177.909 63.542 156.568 92.9581 151.665L138.956 144.023C146.599 142.725 155.828 135.948 159.289 128.883L184.668 78.1249C198.51 50.5834 221.005 50.5834 234.704 78.1249L260.083 128.883C263.543 135.948 272.771 142.725 280.558 144.023L326.556 151.665C355.973 156.568 362.894 177.909 341.698 198.961L305.936 234.723C299.88 240.779 296.564 252.459 298.439 260.823L308.676 305.09C316.751 340.13 298.15 353.685 267.148 335.371L229.629 313.161C232.296 311.555 234.529 310.058 236.326 308.719C239.636 307.054 242.879 305.156 246.034 303.024C285.019 276.664 295.661 224.295 269.805 186.053C243.948 147.811 191.384 138.179 152.398 164.539Z" fill="white"/>
<path fill-rule="evenodd" clip-rule="evenodd" d="M156.959 191.826C157.864 191.137 158.792 190.471 159.746 189.826C186.876 171.482 223.542 178.312 241.641 205.081C259.741 231.851 252.421 268.422 225.291 286.766C223.096 288.25 220.839 289.57 218.534 290.726C209.184 297.697 182.902 310.776 139.461 316.131L176.094 281.799L75.0215 319.262L150.97 234.302L100.336 261.16C106.667 247.225 126.459 214.097 154.971 193.07C155.611 192.599 156.274 192.185 156.959 191.826Z" fill="white"/>
</g>
<defs>
<clipPath id="clip0_446_2759">
<rect width="400" height="400" fill="white" transform="translate(0 0.5)"/>
</clipPath>
</defs>
</svg>
